<?xml version="1.0" encoding="UTF-8"?><svg width="855" height="257" viewBox="0 0 855 257" xmlns="http://www.w3.org/2000/svg" role="img" aria-labelledby="title description" font-family="-apple-system, BlinkMacSystemFont, &apos;Segoe UI&apos;, Helvetica, Arial, sans-serif"><title id="title">AI Coding Activity</title><desc id="description">Token activity from 2025-07-13 through 2026-07-17. Historical data is incomplete.</desc><rect width="855" height="257" fill="#0d1117" rx="6" ry="6"/><text x="30" y="25" fill="#e6edf3" font-size="16" font-weight="600">AI Coding Activity</text><text x="30" y="45" fill="#8b949e" font-size="12">Token usage across devices, tools, and agents</text><text x="30" y="65" fill="#58a6ff" font-size="11">Claude Code: 11,511,872 | Codex: 8,718,563,706 | MiMo Code: 115,204,733</text><text x="650" y="45" fill="#8b949e" font-size="10">Less</text><rect x="680" y="36" width="10" height="10" fill="#161b22" rx="2" ry="2"/><rect x="695" y="36" width="10" height="10" fill="#0f3264" rx="2" ry="2"/><rect x="710" y="36" width="10" height="10" fill="#1976d2" rx="2" ry="2"/><rect x="725" y="36" width="10" height="10" fill="#2878c8" rx="2" ry="2"/><rect x="740" y="36" width="10" height="10" fill="#42a5f5" rx="2" ry="2"/><rect x="755" y="36" width="10" height="10" fill="#90caf9" rx="2" ry="2"/><text x="770" y="45" fill="#8b949e" font-size="10">More</text><text x="30" y="84" fill="#8b949e" font-size="10">Jul</text><text x="135" y="84" fill="#8b949e" font-size="10">Sep</text><text x="195" y="84" fill="#8b949e" font-size="10">Oct</text><text x="255" y="84" fill="#8b949e" font-size="10">Nov</text><text x="330" y="84" fill="#8b949e" font-size="10">Dec</text><text x="390" y="84" fill="#8b949e" font-size="10">Jan</text><text x="465" y="84" fill="#8b949e" font-size="10">Feb</text><text x="525" y="84" fill="#8b949e" font-size="10">Mar</text><text x="585" y="84" fill="#8b949e" font-size="10">Apr</text><text x="645" y="84" fill="#8b949e" font-size="10">May</text><text x="720" y="84" fill="#8b949e" font-size="10">Jun</text><text x="780" y="84" fill="#8b949e" font-size="10">Jul</text><text x="25" y="102" fill="#8b949e" font-size="10" text-anchor="end">Sun</text><text x="25" y="132" fill="#8b949e" font-size="10" text-anchor="end">Tue</text><text x="25" y="162" fill="#8b949e" font-size="10" text-anchor="end">Thu</text><text x="25" y="192" fill="#8b949e" font-size="10" text-anchor="end">Sat</text><rect x="30" y="92" width="12" height="12" fill="#161b22" rx="2" ry="2"><title>2025-07-13: no activity</title></rect><rect x="30" y="107" width="12" height="12" fill="#161b22" rx="2" ry="2"><title>2025-07-14: no activity</title></rect><rect x="30" y="122" width="12" height="12" fill="#161b22" rx="2" ry="2"><title>2025-07-15: no activity</title></rect><rect x="30" y="137" width="12" height="12" fill="#161b22" rx="2" ry="2"><title>2025-07-16: no activity</title></rect><rect x="30" y="152" width="12" height="12" fill="#161b22" rx="2" ry="2"><title>2025-07-17: no activity</title></rect><rect x="30" y="167" width="12" height="12" fill="#161b22" rx="2" ry="2"><title>2025-07-18: no activity</title></rect><rect x="30" y="182" width="12" height="12" fill="#161b22" rx="2" ry="2"><title>2025-07-19: no activity</title></rect><rect x="45" y="92" width="12" height="12" fill="#161b22" rx="2" ry="2"><title>2025-07-20: no activity</title></rect><rect x="45" y="107" width="12" height="12" fill="#161b22" rx="2" ry="2"><title>2025-07-21: no activity</title></rect><rect x="45" y="122" width="12" height="12" fill="#161b22" rx="2" ry="2"><title>2025-07-22: no activity</title></rect><rect x="45" y="137" width="12" height="12" fill="#161b22" rx="2" ry="2"><title>2025-07-23: no activity</title></rect><rect x="45" y="152" width="12" height="12" fill="#161b22" rx="2" ry="2"><title>2025-07-24: no activity</title></rect><rect x="45" y="167" width="12" height="12" fill="#161b22" rx="2" ry="2"><title>2025-07-25: no activity</title></rect><rect x="45" y="182" width="12" height="12" fill="#161b22" rx="2" ry="2"><title>2025-07-26: no activity</title></rect><rect x="60" y="92" width="12" height="12" fill="#161b22" rx="2" ry="2"><title>2025-07-27: no activity</title></rect><rect x="60" y="107" width="12" height="12" fill="#161b22" rx="2" ry="2"><title>2025-07-28: no activity</title></rect><rect x="60" y="122" width="12" height="12" fill="#161b22" rx="2" ry="2"><title>2025-07-29: no activity</title></rect><rect x="60" y="137" width="12" height="12" fill="#161b22" rx="2" ry="2"><title>2025-07-30: no activity</title></rect><rect x="60" y="152" width="12" height="12" fill="#161b22" rx="2" ry="2"><title>2025-07-31: no activity</title></rect><rect x="60" y="167" width="12" height="12" fill="#161b22" rx="2" ry="2"><title>2025-08-01: no activity</title></rect><rect x="60" y="182" width="12" height="12" fill="#161b22" rx="2" ry="2"><title>2025-08-02: no activity</title></rect><rect x="75" y="92" width="12" height="12" fill="#161b22" rx="2" ry="2"><title>2025-08-03: no activity</title></rect><rect x="75" y="107" width="12" height="12" fill="#161b22" rx="2" ry="2"><title>2025-08-04: no activity</title></rect><rect x="75" y="122" width="12" height="12" fill="#161b22" rx="2" ry="2"><title>2025-08-05: no activity</title></rect><rect x="75" y="137" width="12" height="12" fill="#161b22" rx="2" ry="2"><title>2025-08-06: no activity</title></rect><rect x="75" y="152" width="12" height="12" fill="#161b22" rx="2" ry="2"><title>2025-08-07: no activity</title></rect><rect x="75" y="167" width="12" height="12" fill="#161b22" rx="2" ry="2"><title>2025-08-08: no activity</title></rect><rect x="75" y="182" width="12" height="12" fill="#161b22" rx="2" ry="2"><title>2025-08-09: no activity</title></rect><rect x="90" y="92" width="12" height="12" fill="#161b22" rx="2" ry="2"><title>2025-08-10: no activity</title></rect><rect x="90" y="107" width="12" height="12" fill="#161b22" rx="2" ry="2"><title>2025-08-11: no activity</title></rect><rect x="90" y="122" width="12" height="12" fill="#161b22" rx="2" ry="2"><title>2025-08-12: no activity</title></rect><rect x="90" y="137" width="12" height="12" fill="#161b22" rx="2" ry="2"><title>2025-08-13: no activity</title></rect><rect x="90" y="152" width="12" height="12" fill="#161b22" rx="2" ry="2"><title>2025-08-14: no activity</title></rect><rect x="90" y="167" width="12" height="12" fill="#161b22" rx="2" ry="2"><title>2025-08-15: no activity</title></rect><rect x="90" y="182" width="12" height="12" fill="#161b22" rx="2" ry="2"><title>2025-08-16: no activity</title></rect><rect x="105" y="92" width="12" height="12" fill="#161b22" rx="2" ry="2"><title>2025-08-17: no activity</title></rect><rect x="105" y="107" width="12" height="12" fill="#161b22" rx="2" ry="2"><title>2025-08-18: no activity</title></rect><rect x="105" y="122" width="12" height="12" fill="#161b22" rx="2" ry="2"><title>2025-08-19: no activity</title></rect><rect x="105" y="137" width="12" height="12" fill="#161b22" rx="2" ry="2"><title>2025-08-20: no activity</title></rect><rect x="105" y="152" width="12" height="12" fill="#161b22" rx="2" ry="2"><title>2025-08-21: no activity</title></rect><rect x="105" y="167" width="12" height="12" fill="#161b22" rx="2" ry="2"><title>2025-08-22: no activity</title></rect><rect x="105" y="182" width="12" height="12" fill="#161b22" rx="2" ry="2"><title>2025-08-23: no activity</title></rect><rect x="120" y="92" width="12" height="12" fill="#161b22" rx="2" ry="2"><title>2025-08-24: no activity</title></rect><rect x="120" y="107" width="12" height="12" fill="#161b22" rx="2" ry="2"><title>2025-08-25: no activity</title></rect><rect x="120" y="122" width="12" height="12" fill="#161b22" rx="2" ry="2"><title>2025-08-26: no activity</title></rect><rect x="120" y="137" width="12" height="12" fill="#161b22" rx="2" ry="2"><title>2025-08-27: no activity</title></rect><rect x="120" y="152" width="12" height="12" fill="#161b22" rx="2" ry="2"><title>2025-08-28: no activity</title></rect><rect x="120" y="167" width="12" height="12" fill="#161b22" rx="2" ry="2"><title>2025-08-29: no activity</title></rect><rect x="120" y="182" width="12" height="12" fill="#161b22" rx="2" ry="2"><title>2025-08-30: no activity</title></rect><rect x="135" y="92" width="12" height="12" fill="#161b22" rx="2" ry="2"><title>2025-08-31: no activity</title></rect><rect x="135" y="107" width="12" height="12" fill="#161b22" rx="2" ry="2"><title>2025-09-01: no activity</title></rect><rect x="135" y="122" width="12" height="12" fill="#161b22" rx="2" ry="2"><title>2025-09-02: no activity</title></rect><rect x="135" y="137" width="12" height="12" fill="#161b22" rx="2" ry="2"><title>2025-09-03: no activity</title></rect><rect x="135" y="152" width="12" height="12" fill="#161b22" rx="2" ry="2"><title>2025-09-04: no activity</title></rect><rect x="135" y="167" width="12" height="12" fill="#161b22" rx="2" ry="2"><title>2025-09-05: no activity</title></rect><rect x="135" y="182" width="12" height="12" fill="#161b22" rx="2" ry="2"><title>2025-09-06: no activity</title></rect><rect x="150" y="92" width="12" height="12" fill="#161b22" rx="2" ry="2"><title>2025-09-07: no activity</title></rect><rect x="150" y="107" width="12" height="12" fill="#161b22" rx="2" ry="2"><title>2025-09-08: no activity</title></rect><rect x="150" y="122" width="12" height="12" fill="#161b22" rx="2" ry="2"><title>2025-09-09: no activity</title></rect><rect x="150" y="137" width="12" height="12" fill="#161b22" rx="2" ry="2"><title>2025-09-10: no activity</title></rect><rect x="150" y="152" width="12" height="12" fill="#161b22" rx="2" ry="2"><title>2025-09-11: no activity</title></rect><rect x="150" y="167" width="12" height="12" fill="#161b22" rx="2" ry="2"><title>2025-09-12: no activity</title></rect><rect x="150" y="182" width="12" height="12" fill="#161b22" rx="2" ry="2"><title>2025-09-13: no activity</title></rect><rect x="165" y="92" width="12" height="12" fill="#161b22" rx="2" ry="2"><title>2025-09-14: no activity</title></rect><rect x="165" y="107" width="12" height="12" fill="#161b22" rx="2" ry="2"><title>2025-09-15: no activity</title></rect><rect x="165" y="122" width="12" height="12" fill="#161b22" rx="2" ry="2"><title>2025-09-16: no activity</title></rect><rect x="165" y="137" width="12" height="12" fill="#161b22" rx="2" ry="2"><title>2025-09-17: no activity</title></rect><rect x="165" y="152" width="12" height="12" fill="#161b22" rx="2" ry="2"><title>2025-09-18: no activity</title></rect><rect x="165" y="167" width="12" height="12" fill="#161b22" rx="2" ry="2"><title>2025-09-19: no activity</title></rect><rect x="165" y="182" width="12" height="12" fill="#161b22" rx="2" ry="2"><title>2025-09-20: no activity</title></rect><rect x="180" y="92" width="12" height="12" fill="#161b22" rx="2" ry="2"><title>2025-09-21: no activity</title></rect><rect x="180" y="107" width="12" height="12" fill="#161b22" rx="2" ry="2"><title>2025-09-22: no activity</title></rect><rect x="180" y="122" width="12" height="12" fill="#161b22" rx="2" ry="2"><title>2025-09-23: no activity</title></rect><rect x="180" y="137" width="12" height="12" fill="#161b22" rx="2" ry="2"><title>2025-09-24: no activity</title></rect><rect x="180" y="152" width="12" height="12" fill="#161b22" rx="2" ry="2"><title>2025-09-25: no activity</title></rect><rect x="180" y="167" width="12" height="12" fill="#161b22" rx="2" ry="2"><title>2025-09-26: no activity</title></rect><rect x="180" y="182" width="12" height="12" fill="#161b22" rx="2" ry="2"><title>2025-09-27: no activity</title></rect><rect x="195" y="92" width="12" height="12" fill="#161b22" rx="2" ry="2"><title>2025-09-28: no activity</title></rect><rect x="195" y="107" width="12" height="12" fill="#161b22" rx="2" ry="2"><title>2025-09-29: no activity</title></rect><rect x="195" y="122" width="12" height="12" fill="#161b22" rx="2" ry="2"><title>2025-09-30: no activity</title></rect><rect x="195" y="137" width="12" height="12" fill="#161b22" rx="2" ry="2"><title>2025-10-01: no activity</title></rect><rect x="195" y="152" width="12" height="12" fill="#161b22" rx="2" ry="2"><title>2025-10-02: no activity</title></rect><rect x="195" y="167" width="12" height="12" fill="#161b22" rx="2" ry="2"><title>2025-10-03: no activity</title></rect><rect x="195" y="182" width="12" height="12" fill="#161b22" rx="2" ry="2"><title>2025-10-04: no activity</title></rect><rect x="210" y="92" width="12" height="12" fill="#161b22" rx="2" ry="2"><title>2025-10-05: no activity</title></rect><rect x="210" y="107" width="12" height="12" fill="#161b22" rx="2" ry="2"><title>2025-10-06: no activity</title></rect><rect x="210" y="122" width="12" height="12" fill="#161b22" rx="2" ry="2"><title>2025-10-07: no activity</title></rect><rect x="210" y="137" width="12" height="12" fill="#161b22" rx="2" ry="2"><title>2025-10-08: no activity</title></rect><rect x="210" y="152" width="12" height="12" fill="#161b22" rx="2" ry="2"><title>2025-10-09: no activity</title></rect><rect x="210" y="167" width="12" height="12" fill="#161b22" rx="2" ry="2"><title>2025-10-10: no activity</title></rect><rect x="210" y="182" width="12" height="12" fill="#161b22" rx="2" ry="2"><title>2025-10-11: no activity</title></rect><rect x="225" y="92" width="12" height="12" fill="#161b22" rx="2" ry="2"><title>2025-10-12: no activity</title></rect><rect x="225" y="107" width="12" height="12" fill="#161b22" rx="2" ry="2"><title>2025-10-13: no activity</title></rect><rect x="225" y="122" width="12" height="12" fill="#161b22" rx="2" ry="2"><title>2025-10-14: no activity</title></rect><rect x="225" y="137" width="12" height="12" fill="#161b22" rx="2" ry="2"><title>2025-10-15: no activity</title></rect><rect x="225" y="152" width="12" height="12" fill="#161b22" rx="2" ry="2"><title>2025-10-16: no activity</title></rect><rect x="225" y="167" width="12" height="12" fill="#161b22" rx="2" ry="2"><title>2025-10-17: no activity</title></rect><rect x="225" y="182" width="12" height="12" fill="#161b22" rx="2" ry="2"><title>2025-10-18: no activity</title></rect><rect x="240" y="92" width="12" height="12" fill="#161b22" rx="2" ry="2"><title>2025-10-19: no activity</title></rect><rect x="240" y="107" width="12" height="12" fill="#161b22" rx="2" ry="2"><title>2025-10-20: no activity</title></rect><rect x="240" y="122" width="12" height="12" fill="#161b22" rx="2" ry="2"><title>2025-10-21: no activity</title></rect><rect x="240" y="137" width="12" height="12" fill="#161b22" rx="2" ry="2"><title>2025-10-22: no activity</title></rect><rect x="240" y="152" width="12" height="12" fill="#161b22" rx="2" ry="2"><title>2025-10-23: no activity</title></rect><rect x="240" y="167" width="12" height="12" fill="#161b22" rx="2" ry="2"><title>2025-10-24: no activity</title></rect><rect x="240" y="182" width="12" height="12" fill="#161b22" rx="2" ry="2"><title>2025-10-25: no activity</title></rect><rect x="255" y="92" width="12" height="12" fill="#161b22" rx="2" ry="2"><title>2025-10-26: no activity</title></rect><rect x="255" y="107" width="12" height="12" fill="#161b22" rx="2" ry="2"><title>2025-10-27: no activity</title></rect><rect x="255" y="122" width="12" height="12" fill="#161b22" rx="2" ry="2"><title>2025-10-28: no activity</title></rect><rect x="255" y="137" width="12" height="12" fill="#161b22" rx="2" ry="2"><title>2025-10-29: no activity</title></rect><rect x="255" y="152" width="12" height="12" fill="#161b22" rx="2" ry="2"><title>2025-10-30: no activity</title></rect><rect x="255" y="167" width="12" height="12" fill="#161b22" rx="2" ry="2"><title>2025-10-31: no activity</title></rect><rect x="255" y="182" width="12" height="12" fill="#161b22" rx="2" ry="2"><title>2025-11-01: no activity</title></rect><rect x="270" y="92" width="12" height="12" fill="#161b22" rx="2" ry="2"><title>2025-11-02: no activity</title></rect><rect x="270" y="107" width="12" height="12" fill="#161b22" rx="2" ry="2"><title>2025-11-03: no activity</title></rect><rect x="270" y="122" width="12" height="12" fill="#161b22" rx="2" ry="2"><title>2025-11-04: no activity</title></rect><rect x="270" y="137" width="12" height="12" fill="#161b22" rx="2" ry="2"><title>2025-11-05: no activity</title></rect><rect x="270" y="152" width="12" height="12" fill="#161b22" rx="2" ry="2"><title>2025-11-06: no activity</title></rect><rect x="270" y="167" width="12" height="12" fill="#161b22" rx="2" ry="2"><title>2025-11-07: no activity</title></rect><rect x="270" y="182" width="12" height="12" fill="#161b22" rx="2" ry="2"><title>2025-11-08: no activity</title></rect><rect x="285" y="92" width="12" height="12" fill="#161b22" rx="2" ry="2"><title>2025-11-09: no activity</title></rect><rect x="285" y="107" width="12" height="12" fill="#161b22" rx="2" ry="2"><title>2025-11-10: no activity</title></rect><rect x="285" y="122" width="12" height="12" fill="#161b22" rx="2" ry="2"><title>2025-11-11: no activity</title></rect><rect x="285" y="137" width="12" height="12" fill="#161b22" rx="2" ry="2"><title>2025-11-12: no activity</title></rect><rect x="285" y="152" width="12" height="12" fill="#161b22" rx="2" ry="2"><title>2025-11-13: no activity</title></rect><rect x="285" y="167" width="12" height="12" fill="#161b22" rx="2" ry="2"><title>2025-11-14: no activity</title></rect><rect x="285" y="182" width="12" height="12" fill="#161b22" rx="2" ry="2"><title>2025-11-15: no activity</title></rect><rect x="300" y="92" width="12" height="12" fill="#161b22" rx="2" ry="2"><title>2025-11-16: no activity</title></rect><rect x="300" y="107" width="12" height="12" fill="#161b22" rx="2" ry="2"><title>2025-11-17: no activity</title></rect><rect x="300" y="122" width="12" height="12" fill="#161b22" rx="2" ry="2"><title>2025-11-18: no activity</title></rect><rect x="300" y="137" width="12" height="12" fill="#161b22" rx="2" ry="2"><title>2025-11-19: no activity</title></rect><rect x="300" y="152" width="12" height="12" fill="#161b22" rx="2" ry="2"><title>2025-11-20: no activity</title></rect><rect x="300" y="167" width="12" height="12" fill="#161b22" rx="2" ry="2"><title>2025-11-21: no activity</title></rect><rect x="300" y="182" width="12" height="12" fill="#161b22" rx="2" ry="2"><title>2025-11-22: no activity</title></rect><rect x="315" y="92" width="12" height="12" fill="#161b22" rx="2" ry="2"><title>2025-11-23: no activity</title></rect><rect x="315" y="107" width="12" height="12" fill="#161b22" rx="2" ry="2"><title>2025-11-24: no activity</title></rect><rect x="315" y="122" width="12" height="12" fill="#161b22" rx="2" ry="2"><title>2025-11-25: no activity</title></rect><rect x="315" y="137" width="12" height="12" fill="#161b22" rx="2" ry="2"><title>2025-11-26: no activity</title></rect><rect x="315" y="152" width="12" height="12" fill="#161b22" rx="2" ry="2"><title>2025-11-27: no activity</title></rect><rect x="315" y="167" width="12" height="12" fill="#161b22" rx="2" ry="2"><title>2025-11-28: no activity</title></rect><rect x="315" y="182" width="12" height="12" fill="#161b22" rx="2" ry="2"><title>2025-11-29: no activity</title></rect><rect x="330" y="92" width="12" height="12" fill="#161b22" rx="2" ry="2"><title>2025-11-30: no activity</title></rect><rect x="330" y="107" width="12" height="12" fill="#161b22" rx="2" ry="2"><title>2025-12-01: no activity</title></rect><rect x="330" y="122" width="12" height="12" fill="#161b22" rx="2" ry="2"><title>2025-12-02: no activity</title></rect><rect x="330" y="137" width="12" height="12" fill="#161b22" rx="2" ry="2"><title>2025-12-03: no activity</title></rect><rect x="330" y="152" width="12" height="12" fill="#161b22" rx="2" ry="2"><title>2025-12-04: no activity</title></rect><rect x="330" y="167" width="12" height="12" fill="#161b22" rx="2" ry="2"><title>2025-12-05: no activity</title></rect><rect x="330" y="182" width="12" height="12" fill="#161b22" rx="2" ry="2"><title>2025-12-06: no activity</title></rect><rect x="345" y="92" width="12" height="12" fill="#161b22" rx="2" ry="2"><title>2025-12-07: no activity</title></rect><rect x="345" y="107" width="12" height="12" fill="#161b22" rx="2" ry="2"><title>2025-12-08: no activity</title></rect><rect x="345" y="122" width="12" height="12" fill="#161b22" rx="2" ry="2"><title>2025-12-09: no activity</title></rect><rect x="345" y="137" width="12" height="12" fill="#161b22" rx="2" ry="2"><title>2025-12-10: no activity</title></rect><rect x="345" y="152" width="12" height="12" fill="#161b22" rx="2" ry="2"><title>2025-12-11: no activity</title></rect><rect x="345" y="167" width="12" height="12" fill="#161b22" rx="2" ry="2"><title>2025-12-12: no activity</title></rect><rect x="345" y="182" width="12" height="12" fill="#161b22" rx="2" ry="2"><title>2025-12-13: no activity</title></rect><rect x="360" y="92" width="12" height="12" fill="#161b22" rx="2" ry="2"><title>2025-12-14: no activity</title></rect><rect x="360" y="107" width="12" height="12" fill="#161b22" rx="2" ry="2"><title>2025-12-15: no activity</title></rect><rect x="360" y="122" width="12" height="12" fill="#161b22" rx="2" ry="2"><title>2025-12-16: no activity</title></rect><rect x="360" y="137" width="12" height="12" fill="#161b22" rx="2" ry="2"><title>2025-12-17: no activity</title></rect><rect x="360" y="152" width="12" height="12" fill="#161b22" rx="2" ry="2"><title>2025-12-18: no activity</title></rect><rect x="360" y="167" width="12" height="12" fill="#161b22" rx="2" ry="2"><title>2025-12-19: no activity</title></rect><rect x="360" y="182" width="12" height="12" fill="#161b22" rx="2" ry="2"><title>2025-12-20: no activity</title></rect><rect x="375" y="92" width="12" height="12" fill="#161b22" rx="2" ry="2"><title>2025-12-21: no activity</title></rect><rect x="375" y="107" width="12" height="12" fill="#161b22" rx="2" ry="2"><title>2025-12-22: no activity</title></rect><rect x="375" y="122" width="12" height="12" fill="#161b22" rx="2" ry="2"><title>2025-12-23: no activity</title></rect><rect x="375" y="137" width="12" height="12" fill="#161b22" rx="2" ry="2"><title>2025-12-24: no activity</title></rect><rect x="375" y="152" width="12" height="12" fill="#161b22" rx="2" ry="2"><title>2025-12-25: no activity</title></rect><rect x="375" y="167" width="12" height="12" fill="#161b22" rx="2" ry="2"><title>2025-12-26: no activity</title></rect><rect x="375" y="182" width="12" height="12" fill="#161b22" rx="2" ry="2"><title>2025-12-27: no activity</title></rect><rect x="390" y="92" width="12" height="12" fill="#161b22" rx="2" ry="2"><title>2025-12-28: no activity</title></rect><rect x="390" y="107" width="12" height="12" fill="#161b22" rx="2" ry="2"><title>2025-12-29: no activity</title></rect><rect x="390" y="122" width="12" height="12" fill="#161b22" rx="2" ry="2"><title>2025-12-30: no activity</title></rect><rect x="390" y="137" width="12" height="12" fill="#161b22" rx="2" ry="2"><title>2025-12-31: no activity</title></rect><rect x="390" y="152" width="12" height="12" fill="#161b22" rx="2" ry="2"><title>2026-01-01: no activity</title></rect><rect x="390" y="167" width="12" height="12" fill="#161b22" rx="2" ry="2"><title>2026-01-02: no activity</title></rect><rect x="390" y="182" width="12" height="12" fill="#161b22" rx="2" ry="2"><title>2026-01-03: no activity</title></rect><rect x="405" y="92" width="12" height="12" fill="#161b22" rx="2" ry="2"><title>2026-01-04: no activity</title></rect><rect x="405" y="107" width="12" height="12" fill="#161b22" rx="2" ry="2"><title>2026-01-05: no activity</title></rect><rect x="405" y="122" width="12" height="12" fill="#161b22" rx="2" ry="2"><title>2026-01-06: no activity</title></rect><rect x="405" y="137" width="12" height="12" fill="#161b22" rx="2" ry="2"><title>2026-01-07: no activity</title></rect><rect x="405" y="152" width="12" height="12" fill="#161b22" rx="2" ry="2"><title>2026-01-08: no activity</title></rect><rect x="405" y="167" width="12" height="12" fill="#161b22" rx="2" ry="2"><title>2026-01-09: no activity</title></rect><rect x="405" y="182" width="12" height="12" fill="#161b22" rx="2" ry="2"><title>2026-01-10: no activity</title></rect><rect x="420" y="92" width="12" height="12" fill="#161b22" rx="2" ry="2"><title>2026-01-11: no activity</title></rect><rect x="420" y="107" width="12" height="12" fill="#161b22" rx="2" ry="2"><title>2026-01-12: no activity</title></rect><rect x="420" y="122" width="12" height="12" fill="#161b22" rx="2" ry="2"><title>2026-01-13: no activity</title></rect><rect x="420" y="137" width="12" height="12" fill="#161b22" rx="2" ry="2"><title>2026-01-14: no activity</title></rect><rect x="420" y="152" width="12" height="12" fill="#161b22" rx="2" ry="2"><title>2026-01-15: no activity</title></rect><rect x="420" y="167" width="12" height="12" fill="#161b22" rx="2" ry="2"><title>2026-01-16: no activity</title></rect><rect x="420" y="182" width="12" height="12" fill="#161b22" rx="2" ry="2"><title>2026-01-17: no activity</title></rect><rect x="435" y="92" width="12" height="12" fill="#161b22" rx="2" ry="2"><title>2026-01-18: no activity</title></rect><rect x="435" y="107" width="12" height="12" fill="#161b22" rx="2" ry="2"><title>2026-01-19: no activity</title></rect><rect x="435" y="122" width="12" height="12" fill="#161b22" rx="2" ry="2"><title>2026-01-20: no activity</title></rect><rect x="435" y="137" width="12" height="12" fill="#161b22" rx="2" ry="2"><title>2026-01-21: no activity</title></rect><rect x="435" y="152" width="12" height="12" fill="#161b22" rx="2" ry="2"><title>2026-01-22: no activity</title></rect><rect x="435" y="167" width="12" height="12" fill="#161b22" rx="2" ry="2"><title>2026-01-23: no activity</title></rect><rect x="435" y="182" width="12" height="12" fill="#161b22" rx="2" ry="2"><title>2026-01-24: no activity</title></rect><rect x="450" y="92" width="12" height="12" fill="#161b22" rx="2" ry="2"><title>2026-01-25: no activity</title></rect><rect x="450" y="107" width="12" height="12" fill="#161b22" rx="2" ry="2"><title>2026-01-26: no activity</title></rect><rect x="450" y="122" width="12" height="12" fill="#161b22" rx="2" ry="2"><title>2026-01-27: no activity</title></rect><rect x="450" y="137" width="12" height="12" fill="#161b22" rx="2" ry="2"><title>2026-01-28: no activity</title></rect><rect x="450" y="152" width="12" height="12" fill="#161b22" rx="2" ry="2"><title>2026-01-29: no activity</title></rect><rect x="450" y="167" width="12" height="12" fill="#161b22" rx="2" ry="2"><title>2026-01-30: no activity</title></rect><rect x="450" y="182" width="12" height="12" fill="#161b22" rx="2" ry="2"><title>2026-01-31: no activity</title></rect><rect x="465" y="92" width="12" height="12" fill="#161b22" rx="2" ry="2"><title>2026-02-01: no activity</title></rect><rect x="465" y="107" width="12" height="12" fill="#161b22" rx="2" ry="2"><title>2026-02-02: no activity</title></rect><rect x="465" y="122" width="12" height="12" fill="#161b22" rx="2" ry="2"><title>2026-02-03: no activity</title></rect><rect x="465" y="137" width="12" height="12" fill="#161b22" rx="2" ry="2"><title>2026-02-04: no activity</title></rect><rect x="465" y="152" width="12" height="12" fill="#161b22" rx="2" ry="2"><title>2026-02-05: no activity</title></rect><rect x="465" y="167" width="12" height="12" fill="#161b22" rx="2" ry="2"><title>2026-02-06: no activity</title></rect><rect x="465" y="182" width="12" height="12" fill="#161b22" rx="2" ry="2"><title>2026-02-07: no activity</title></rect><rect x="480" y="92" width="12" height="12" fill="#161b22" rx="2" ry="2"><title>2026-02-08: no activity</title></rect><rect x="480" y="107" width="12" height="12" fill="#161b22" rx="2" ry="2"><title>2026-02-09: no activity</title></rect><rect x="480" y="122" width="12" height="12" fill="#161b22" rx="2" ry="2"><title>2026-02-10: no activity</title></rect><rect x="480" y="137" width="12" height="12" fill="#161b22" rx="2" ry="2"><title>2026-02-11: no activity</title></rect><rect x="480" y="152" width="12" height="12" fill="#161b22" rx="2" ry="2"><title>2026-02-12: no activity</title></rect><rect x="480" y="167" width="12" height="12" fill="#161b22" rx="2" ry="2"><title>2026-02-13: no activity</title></rect><rect x="480" y="182" width="12" height="12" fill="#161b22" rx="2" ry="2"><title>2026-02-14: no activity</title></rect><rect x="495" y="92" width="12" height="12" fill="#161b22" rx="2" ry="2"><title>2026-02-15: no activity</title></rect><rect x="495" y="107" width="12" height="12" fill="#161b22" rx="2" ry="2"><title>2026-02-16: no activity</title></rect><rect x="495" y="122" width="12" height="12" fill="#161b22" rx="2" ry="2"><title>2026-02-17: no activity</title></rect><rect x="495" y="137" width="12" height="12" fill="#161b22" rx="2" ry="2"><title>2026-02-18: no activity</title></rect><rect x="495" y="152" width="12" height="12" fill="#161b22" rx="2" ry="2"><title>2026-02-19: no activity</title></rect><rect x="495" y="167" width="12" height="12" fill="#161b22" rx="2" ry="2"><title>2026-02-20: no activity</title></rect><rect x="495" y="182" width="12" height="12" fill="#161b22" rx="2" ry="2"><title>2026-02-21: no activity</title></rect><rect x="510" y="92" width="12" height="12" fill="#161b22" rx="2" ry="2"><title>2026-02-22: no activity</title></rect><rect x="510" y="107" width="12" height="12" fill="#161b22" rx="2" ry="2"><title>2026-02-23: no activity</title></rect><rect x="510" y="122" width="12" height="12" fill="#161b22" rx="2" ry="2"><title>2026-02-24: no activity</title></rect><rect x="510" y="137" width="12" height="12" fill="#161b22" rx="2" ry="2"><title>2026-02-25: no activity</title></rect><rect x="510" y="152" width="12" height="12" fill="#161b22" rx="2" ry="2"><title>2026-02-26: no activity</title></rect><rect x="510" y="167" width="12" height="12" fill="#161b22" rx="2" ry="2"><title>2026-02-27: no activity</title></rect><rect x="510" y="182" width="12" height="12" fill="#161b22" rx="2" ry="2"><title>2026-02-28: no activity</title></rect><rect x="525" y="92" width="12" height="12" fill="#161b22" rx="2" ry="2"><title>2026-03-01: no activity</title></rect><rect x="525" y="107" width="12" height="12" fill="#161b22" rx="2" ry="2"><title>2026-03-02: no activity</title></rect><rect x="525" y="122" width="12" height="12" fill="#161b22" rx="2" ry="2"><title>2026-03-03: no activity</title></rect><rect x="525" y="137" width="12" height="12" fill="#161b22" rx="2" ry="2"><title>2026-03-04: no activity</title></rect><rect x="525" y="152" width="12" height="12" fill="#161b22" rx="2" ry="2"><title>2026-03-05: no activity</title></rect><rect x="525" y="167" width="12" height="12" fill="#161b22" rx="2" ry="2"><title>2026-03-06: no activity</title></rect><rect x="525" y="182" width="12" height="12" fill="#161b22" rx="2" ry="2"><title>2026-03-07: no activity</title></rect><rect x="540" y="92" width="12" height="12" fill="#161b22" rx="2" ry="2"><title>2026-03-08: no activity</title></rect><rect x="540" y="107" width="12" height="12" fill="#161b22" rx="2" ry="2"><title>2026-03-09: no activity</title></rect><rect x="540" y="122" width="12" height="12" fill="#161b22" rx="2" ry="2"><title>2026-03-10: no activity</title></rect><rect x="540" y="137" width="12" height="12" fill="#161b22" rx="2" ry="2"><title>2026-03-11: no activity</title></rect><rect x="540" y="152" width="12" height="12" fill="#161b22" rx="2" ry="2"><title>2026-03-12: no activity</title></rect><rect x="540" y="167" width="12" height="12" fill="#161b22" rx="2" ry="2"><title>2026-03-13: no activity</title></rect><rect x="540" y="182" width="12" height="12" fill="#161b22" rx="2" ry="2"><title>2026-03-14: no activity</title></rect><rect x="555" y="92" width="12" height="12" fill="#161b22" rx="2" ry="2"><title>2026-03-15: no activity</title></rect><rect x="555" y="107" width="12" height="12" fill="#161b22" rx="2" ry="2"><title>2026-03-16: no activity</title></rect><rect x="555" y="122" width="12" height="12" fill="#161b22" rx="2" ry="2"><title>2026-03-17: no activity</title></rect><rect x="555" y="137" width="12" height="12" fill="#161b22" rx="2" ry="2"><title>2026-03-18: no activity</title></rect><rect x="555" y="152" width="12" height="12" fill="#161b22" rx="2" ry="2"><title>2026-03-19: no activity</title></rect><rect x="555" y="167" width="12" height="12" fill="#144081" rx="2" ry="2"><title>2026-03-20: Codex cloud usage 0.14%</title></rect><rect x="555" y="182" width="12" height="12" fill="#161b22" rx="2" ry="2"><title>2026-03-21: no activity</title></rect><rect x="570" y="92" width="12" height="12" fill="#161b22" rx="2" ry="2"><title>2026-03-22: no activity</title></rect><rect x="570" y="107" width="12" height="12" fill="#161b22" rx="2" ry="2"><title>2026-03-23: no activity</title></rect><rect x="570" y="122" width="12" height="12" fill="#256fbf" rx="2" ry="2"><title>2026-03-24: Codex cloud usage 19.83%</title></rect><rect x="570" y="137" width="12" height="12" fill="#2a7ccc" rx="2" ry="2"><title>2026-03-25: Codex cloud usage 27.26%</title></rect><rect x="570" y="152" width="12" height="12" fill="#1b54a4" rx="2" ry="2"><title>2026-03-26: Codex cloud usage 7.58%</title></rect><rect x="570" y="167" width="12" height="12" fill="#2d80d0" rx="2" ry="2"><title>2026-03-27: Codex cloud usage 29.52%</title></rect><rect x="570" y="182" width="12" height="12" fill="#2672c2" rx="2" ry="2"><title>2026-03-28: Codex cloud usage 21.55%</title></rect><rect x="585" y="92" width="12" height="12" fill="#144081" rx="2" ry="2"><title>2026-03-29: Codex cloud usage 0.22%</title></rect><rect x="585" y="107" width="12" height="12" fill="#2d80d0" rx="2" ry="2"><title>2026-03-30: Codex cloud usage 29.58%</title></rect><rect x="585" y="122" width="12" height="12" fill="#236aba" rx="2" ry="2"><title>2026-03-31: Codex cloud usage 17.2%</title></rect><rect x="585" y="137" width="12" height="12" fill="#1d59a9" rx="2" ry="2"><title>2026-04-01: Codex cloud usage 9.52%</title></rect><rect x="585" y="152" width="12" height="12" fill="#161b22" rx="2" ry="2"><title>2026-04-02: no activity</title></rect><rect x="585" y="167" width="12" height="12" fill="#2c80d0" rx="2" ry="2"><title>2026-04-03: Codex cloud usage 29.36%</title></rect><rect x="585" y="182" width="12" height="12" fill="#2061b1" rx="2" ry="2"><title>2026-04-04: Codex cloud usage 12.88%</title></rect><rect x="600" y="92" width="12" height="12" fill="#161b22" rx="2" ry="2"><title>2026-04-05: no activity</title></rect><rect x="600" y="107" width="12" height="12" fill="#161b22" rx="2" ry="2"><title>2026-04-06: no activity</title></rect><rect x="600" y="122" width="12" height="12" fill="#161b22" rx="2" ry="2"><title>2026-04-07: no activity</title></rect><rect x="600" y="137" width="12" height="12" fill="#2877c7" rx="2" ry="2"><title>2026-04-08: Codex cloud usage 24.43%</title></rect><rect x="600" y="152" width="12" height="12" fill="#2269b9" rx="2" ry="2"><title>2026-04-09: Codex cloud usage 16.44%</title></rect><rect x="600" y="167" width="12" height="12" fill="#144081" rx="2" ry="2"><title>2026-04-10: Codex cloud usage 0.01%</title></rect><rect x="600" y="182" width="12" height="12" fill="#338ada" rx="2" ry="2"><title>2026-04-11: Codex cloud usage 36.33%</title></rect><rect x="615" y="92" width="12" height="12" fill="#55aef6" rx="2" ry="2"><title>2026-04-12: Codex cloud usage 65.6%</title></rect><rect x="615" y="107" width="12" height="12" fill="#358ede" rx="2" ry="2"><title>2026-04-13: Codex cloud usage 38.74%</title></rect><rect x="615" y="122" width="12" height="12" fill="#161b22" rx="2" ry="2"><title>2026-04-14: no activity</title></rect><rect x="615" y="137" width="12" height="12" fill="#161b22" rx="2" ry="2"><title>2026-04-15: no activity</title></rect><rect x="615" y="152" width="12" height="12" fill="#161b22" rx="2" ry="2"><title>2026-04-16: no activity</title></rect><rect x="615" y="167" width="12" height="12" fill="#144081" rx="2" ry="2"><title>2026-04-17: Codex cloud usage 0.64%</title></rect><rect x="615" y="182" width="12" height="12" fill="#1950a0" rx="2" ry="2"><title>2026-04-18: Codex cloud usage 6.24%</title></rect><rect x="630" y="92" width="12" height="12" fill="#174a94" rx="2" ry="2"><title>2026-04-19: Codex cloud usage 4.05%</title></rect><rect x="630" y="107" width="12" height="12" fill="#154387" rx="2" ry="2"><title>2026-04-20: Codex cloud usage 2.1%</title></rect><rect x="630" y="122" width="12" height="12" fill="#161b22" rx="2" ry="2"><title>2026-04-21: no activity</title></rect><rect x="630" y="137" width="12" height="12" fill="#144081" rx="2" ry="2"><title>2026-04-22: Codex cloud usage 1.43%</title></rect><rect x="630" y="152" width="12" height="12" fill="#161b22" rx="2" ry="2"><title>2026-04-23: no activity</title></rect><rect x="630" y="167" width="12" height="12" fill="#161b22" rx="2" ry="2"><title>2026-04-24: no activity</title></rect><rect x="630" y="182" width="12" height="12" fill="#161b22" rx="2" ry="2"><title>2026-04-25: no activity</title></rect><rect x="645" y="92" width="12" height="12" fill="#2671c1" rx="2" ry="2"><title>2026-04-26: Codex cloud usage 21.04%</title></rect><rect x="645" y="107" width="12" height="12" fill="#1a53a3" rx="2" ry="2"><title>2026-04-27: Codex cloud usage 7.06%</title></rect><rect x="645" y="122" width="12" height="12" fill="#161b22" rx="2" ry="2"><title>2026-04-28: no activity</title></rect><rect x="645" y="137" width="12" height="12" fill="#144081" rx="2" ry="2"><title>2026-04-29: Codex cloud usage 1%</title></rect><rect x="645" y="152" width="12" height="12" fill="#161b22" rx="2" ry="2"><title>2026-04-30: no activity</title></rect><rect x="645" y="167" width="12" height="12" fill="#144081" rx="2" ry="2"><title>2026-05-01: Codex cloud usage 1.42%</title></rect><rect x="645" y="182" width="12" height="12" fill="#161b22" rx="2" ry="2"><title>2026-05-02: no activity</title></rect><rect x="660" y="92" width="12" height="12" fill="#144081" rx="2" ry="2"><title>2026-05-03: 612,851 tokens</title></rect><rect x="660" y="107" width="12" height="12" fill="#144081" rx="2" ry="2"><title>2026-05-04: 27,486,931 tokens</title></rect><rect x="660" y="122" width="12" height="12" fill="#144081" rx="2" ry="2"><title>2026-05-05: 9,140,746 tokens</title></rect><rect x="660" y="137" width="12" height="12" fill="#144081" rx="2" ry="2"><title>2026-05-06: 18,052,636 tokens</title></rect><rect x="660" y="152" width="12" height="12" fill="#144081" rx="2" ry="2"><title>2026-05-07: 33,382,002 tokens</title></rect><rect x="660" y="167" width="12" height="12" fill="#144081" rx="2" ry="2"><title>2026-05-08: 8,873,797 tokens</title></rect><rect x="660" y="182" width="12" height="12" fill="#144081" rx="2" ry="2"><title>2026-05-09: 11,273,283 tokens</title></rect><rect x="675" y="92" width="12" height="12" fill="#161b22" rx="2" ry="2"><title>2026-05-10: no activity</title></rect><rect x="675" y="107" width="12" height="12" fill="#144081" rx="2" ry="2"><title>2026-05-11: 7,534,951 tokens</title></rect><rect x="675" y="122" width="12" height="12" fill="#144283" rx="2" ry="2"><title>2026-05-12: 44,897,838 tokens</title></rect><rect x="675" y="137" width="12" height="12" fill="#144081" rx="2" ry="2"><title>2026-05-13: 33,507,390 tokens</title></rect><rect x="675" y="152" width="12" height="12" fill="#144081" rx="2" ry="2"><title>2026-05-14: Codex cloud usage 0.11%</title></rect><rect x="675" y="167" width="12" height="12" fill="#144081" rx="2" ry="2"><title>2026-05-15: 6,510,004 tokens</title></rect><rect x="675" y="182" width="12" height="12" fill="#144081" rx="2" ry="2"><title>2026-05-16: 3,525,618 tokens</title></rect><rect x="690" y="92" width="12" height="12" fill="#144081" rx="2" ry="2"><title>2026-05-17: 30,884 tokens</title></rect><rect x="690" y="107" width="12" height="12" fill="#144081" rx="2" ry="2"><title>2026-05-18: 2,861,921 tokens</title></rect><rect x="690" y="122" width="12" height="12" fill="#144081" rx="2" ry="2"><title>2026-05-19: 19,738,535 tokens</title></rect><rect x="690" y="137" width="12" height="12" fill="#144081" rx="2" ry="2"><title>2026-05-20: 28,813,115 tokens</title></rect><rect x="690" y="152" width="12" height="12" fill="#144081" rx="2" ry="2"><title>2026-05-21: 34,688,517 tokens</title></rect><rect x="690" y="167" width="12" height="12" fill="#144081" rx="2" ry="2"><title>2026-05-22: 14,678,304 tokens</title></rect><rect x="690" y="182" width="12" height="12" fill="#144081" rx="2" ry="2"><title>2026-05-23: 13,589,562 tokens</title></rect><rect x="705" y="92" width="12" height="12" fill="#2570c0" rx="2" ry="2"><title>2026-05-24: Codex cloud usage 20.11%</title></rect><rect x="705" y="107" width="12" height="12" fill="#144081" rx="2" ry="2"><title>2026-05-25: 30,835,279 tokens</title></rect><rect x="705" y="122" width="12" height="12" fill="#144081" rx="2" ry="2"><title>2026-05-26: 10,231,724 tokens</title></rect><rect x="705" y="137" width="12" height="12" fill="#144081" rx="2" ry="2"><title>2026-05-27: 904,845 tokens</title></rect><rect x="705" y="152" width="12" height="12" fill="#144081" rx="2" ry="2"><title>2026-05-28: 5,340,809 tokens</title></rect><rect x="705" y="167" width="12" height="12" fill="#144081" rx="2" ry="2"><title>2026-05-29: 3,257,440 tokens</title></rect><rect x="705" y="182" width="12" height="12" fill="#16468c" rx="2" ry="2"><title>2026-05-30: Codex cloud usage 2.81%</title></rect><rect x="720" y="92" width="12" height="12" fill="#144081" rx="2" ry="2"><title>2026-05-31: 1,679,960 tokens</title></rect><rect x="720" y="107" width="12" height="12" fill="#144081" rx="2" ry="2"><title>2026-06-01: 11,930,465 tokens</title></rect><rect x="720" y="122" width="12" height="12" fill="#144081" rx="2" ry="2"><title>2026-06-02: 1,266,782 tokens</title></rect><rect x="720" y="137" width="12" height="12" fill="#144081" rx="2" ry="2"><title>2026-06-03: 30,830,474 tokens</title></rect><rect x="720" y="152" width="12" height="12" fill="#144081" rx="2" ry="2"><title>2026-06-04: Codex cloud usage 1.39%</title></rect><rect x="720" y="167" width="12" height="12" fill="#144081" rx="2" ry="2"><title>2026-06-05: 103,518 tokens</title></rect><rect x="720" y="182" width="12" height="12" fill="#144081" rx="2" ry="2"><title>2026-06-06: 200,504 tokens</title></rect><rect x="735" y="92" width="12" height="12" fill="#144081" rx="2" ry="2"><title>2026-06-07: 5,826,407 tokens</title></rect><rect x="735" y="107" width="12" height="12" fill="#144081" rx="2" ry="2"><title>2026-06-08: 2,038,700 tokens</title></rect><rect x="735" y="122" width="12" height="12" fill="#144081" rx="2" ry="2"><title>2026-06-09: 2,672,927 tokens</title></rect><rect x="735" y="137" width="12" height="12" fill="#144081" rx="2" ry="2"><title>2026-06-10: 7,586,447 tokens</title></rect><rect x="735" y="152" width="12" height="12" fill="#144081" rx="2" ry="2"><title>2026-06-11: 3,041,770 tokens</title></rect><rect x="735" y="167" width="12" height="12" fill="#174b95" rx="2" ry="2"><title>2026-06-12: 110,671,839 tokens</title></rect><rect x="735" y="182" width="12" height="12" fill="#144081" rx="2" ry="2"><title>2026-06-13: 20,593,150 tokens</title></rect><rect x="750" y="92" width="12" height="12" fill="#161b22" rx="2" ry="2"><title>2026-06-14: no activity</title></rect><rect x="750" y="107" width="12" height="12" fill="#161b22" rx="2" ry="2"><title>2026-06-15: no activity</title></rect><rect x="750" y="122" width="12" height="12" fill="#144081" rx="2" ry="2"><title>2026-06-16: 191,432 tokens</title></rect><rect x="750" y="137" width="12" height="12" fill="#144081" rx="2" ry="2"><title>2026-06-17: 2,422,681 tokens</title></rect><rect x="750" y="152" width="12" height="12" fill="#161b22" rx="2" ry="2"><title>2026-06-18: no activity</title></rect><rect x="750" y="167" width="12" height="12" fill="#144081" rx="2" ry="2"><title>2026-06-19: 1,910,313 tokens</title></rect><rect x="750" y="182" width="12" height="12" fill="#161b22" rx="2" ry="2"><title>2026-06-20: no activity</title></rect><rect x="765" y="92" width="12" height="12" fill="#161b22" rx="2" ry="2"><title>2026-06-21: no activity</title></rect><rect x="765" y="107" width="12" height="12" fill="#144081" rx="2" ry="2"><title>2026-06-22: 7,448,274 tokens</title></rect><rect x="765" y="122" width="12" height="12" fill="#144284" rx="2" ry="2"><title>2026-06-23: 45,878,938 tokens</title></rect><rect x="765" y="137" width="12" height="12" fill="#161b22" rx="2" ry="2"><title>2026-06-24: no activity</title></rect><rect x="765" y="152" width="12" height="12" fill="#144081" rx="2" ry="2"><title>2026-06-25: 2,174,210 tokens</title></rect><rect x="765" y="167" width="12" height="12" fill="#161b22" rx="2" ry="2"><title>2026-06-26: no activity</title></rect><rect x="765" y="182" width="12" height="12" fill="#164890" rx="2" ry="2"><title>2026-06-27: 89,998,519 tokens</title></rect><rect x="780" y="92" width="12" height="12" fill="#174991" rx="2" ry="2"><title>2026-06-28: 93,110,131 tokens</title></rect><rect x="780" y="107" width="12" height="12" fill="#161b22" rx="2" ry="2"><title>2026-06-29: no activity</title></rect><rect x="780" y="122" width="12" height="12" fill="#161b22" rx="2" ry="2"><title>2026-06-30: no activity</title></rect><rect x="780" y="137" width="12" height="12" fill="#161b22" rx="2" ry="2"><title>2026-07-01: no activity</title></rect><rect x="780" y="152" width="12" height="12" fill="#144081" rx="2" ry="2"><title>2026-07-02: 15,793,670 tokens</title></rect><rect x="780" y="167" width="12" height="12" fill="#144081" rx="2" ry="2"><title>2026-07-03: 27,646,743 tokens</title></rect><rect x="780" y="182" width="12" height="12" fill="#144081" rx="2" ry="2"><title>2026-07-04: 24,596,880 tokens</title></rect><rect x="795" y="92" width="12" height="12" fill="#144081" rx="2" ry="2"><title>2026-07-05: 18,260,565 tokens</title></rect><rect x="795" y="107" width="12" height="12" fill="#144081" rx="2" ry="2"><title>2026-07-06: 4,109,563 tokens</title></rect><rect x="795" y="122" width="12" height="12" fill="#144081" rx="2" ry="2"><title>2026-07-07: 875,180 tokens</title></rect><rect x="795" y="137" width="12" height="12" fill="#144081" rx="2" ry="2"><title>2026-07-08: 6,776,753 tokens</title></rect><rect x="795" y="152" width="12" height="12" fill="#144081" rx="2" ry="2"><title>2026-07-09: 31,129,641 tokens</title></rect><rect x="795" y="167" width="12" height="12" fill="#16468d" rx="2" ry="2"><title>2026-07-10: 75,712,965 tokens</title></rect><rect x="795" y="182" width="12" height="12" fill="#164890" rx="2" ry="2"><title>2026-07-11: 87,227,147 tokens</title></rect><rect x="810" y="92" width="12" height="12" fill="#144081" rx="2" ry="2"><title>2026-07-12: 21,698,919 tokens</title></rect><rect x="810" y="107" width="12" height="12" fill="#144284" rx="2" ry="2"><title>2026-07-13: 47,654,315 tokens</title></rect><rect x="810" y="122" width="12" height="12" fill="#90caf9" rx="2" ry="2"><title>2026-07-14: 2,634,839,373 tokens</title></rect><rect x="810" y="137" width="12" height="12" fill="#49a8f5" rx="2" ry="2"><title>2026-07-15: 1,571,340,298 tokens</title></rect><rect x="810" y="152" width="12" height="12" fill="#5db2f6" rx="2" ry="2"><title>2026-07-16: 1,842,721,427 tokens</title></rect><rect x="810" y="167" width="12" height="12" fill="#4daaf6" rx="2" ry="2"><title>2026-07-17: 1,623,550,449 tokens</title></rect><text x="30" y="217" fill="#8b949e" font-size="11">Total: <tspan fill="#e6edf3">8,845,280,311</tspan> tokens</text><text x="300" y="217" fill="#8b949e" font-size="11">Peak: <tspan fill="#e6edf3">2,634,839,373</tspan> tokens</text><text x="570" y="217" fill="#8b949e" font-size="11">Streak: <tspan fill="#58a6ff">16 days</tspan></text><text x="30" y="237" fill="#8b949e" font-size="11">Active days: <tspan fill="#e6edf3">92</tspan></text><text x="180" y="237" fill="#8b949e" font-size="11">Longest streak: <tspan fill="#58a6ff">34 days</tspan></text><text x="400" y="237" fill="#8b949e" font-size="10">Local synced Jul 17 · active Jul 17 · cloud Jun 13 · history gap</text></svg>
